<svg xmlns="http://www.w3.org/2000/svg" viewBox="0 0 84.97 48.44"><defs><style>.cls-1{fill:#ffc905;}.cls-2{fill:#ffca08;}.cls-3{fill:#fff;}</style></defs><title>Asset 4</title><g id="Layer_2" data-name="Layer 2"><g id="Layer_1-2" data-name="Layer 1"><path class="cls-1" d="M36.65,23.84v4.23H47.93V21H36.65Zm1.42-1.41h8.45v1.41H38.07Zm0,2.82h8.45v1.41H38.07Z"/><path class="cls-1" d="M47.93,11.16V6.93H36.65V14H47.93Z"/><path class="cls-1" d="M50.74,11.16H49.33v4.23H35.24V11.16h-1.4A3,3,0,0,0,31,14v7a3,3,0,0,0,2.82,2.82h1.4V19.61H49.33v4.23h1.41A3,3,0,0,0,53.57,21V14a3,3,0,0,0-2.83-2.82Z"/><path class="cls-2" d="M42.29,35a17.5,17.5,0,1,1,17.5-17.5A17.52,17.52,0,0,1,42.29,35Zm0-34a16.5,16.5,0,1,0,16.5,16.5A16.52,16.52,0,0,0,42.29,1Z"/><path class="cls-3" d="M0,46.26V39.8H.75v6.46Z"/><path class="cls-3" d="M8.6,46.26V43.11a1.33,1.33,0,0,0-.25-.87A1,1,0,0,0,7.58,42a1.23,1.23,0,0,0-1,.39,1.89,1.89,0,0,0-.33,1.22v2.7H5.5V43.11a1.33,1.33,0,0,0-.24-.87A1,1,0,0,0,4.48,42a1.22,1.22,0,0,0-1,.41,2.29,2.29,0,0,0-.32,1.36v2.54H2.42V41.42H3l.12.66h0a1.4,1.4,0,0,1,.58-.55,1.75,1.75,0,0,1,.85-.2,1.45,1.45,0,0,1,1.49.82h0a1.65,1.65,0,0,1,.63-.6,2,2,0,0,1,.94-.22,1.64,1.64,0,0,1,1.23.42,1.9,1.9,0,0,1,.41,1.35v3.16Z"/><path class="cls-3" d="M13.1,46.35a2.16,2.16,0,0,1-.86-.17,1.65,1.65,0,0,1-.66-.54h-.05a7.65,7.65,0,0,1,.05.81v2h-.74v-7h.6l.1.66h0a1.71,1.71,0,0,1,.66-.58,2.13,2.13,0,0,1,.86-.17,1.8,1.8,0,0,1,1.49.66,2.89,2.89,0,0,1,.52,1.85,2.85,2.85,0,0,1-.53,1.85A1.79,1.79,0,0,1,13.1,46.35ZM13,42a1.31,1.31,0,0,0-1.07.41,2.1,2.1,0,0,0-.34,1.31v.17a2.41,2.41,0,0,0,.34,1.46,1.31,1.31,0,0,0,1.09.44,1.15,1.15,0,0,0,1-.51,2.48,2.48,0,0,0,.35-1.4A2.35,2.35,0,0,0,14,42.44,1.18,1.18,0,0,0,13,42Z"/><path class="cls-3" d="M18.61,41.33a2.61,2.61,0,0,1,.58.05l-.1.68a2.77,2.77,0,0,0-.53-.06,1.28,1.28,0,0,0-1,.47,1.75,1.75,0,0,0-.42,1.19v2.6H16.4V41.42H17l.09.89h0a2.21,2.21,0,0,1,.65-.73A1.48,1.48,0,0,1,18.61,41.33Z"/><path class="cls-3" d="M20,40.1a.46.46,0,0,1,.13-.37.41.41,0,0,1,.31-.11.46.46,0,0,1,.3.11.48.48,0,0,1,.13.37.46.46,0,0,1-.13.37.42.42,0,0,1-.3.12.41.41,0,0,1-.31-.12A.46.46,0,0,1,20,40.1Zm.8,6.16H20.1V41.42h.73Z"/><path class="cls-3" d="M28.57,46.26V43.11a1.33,1.33,0,0,0-.25-.87,1,1,0,0,0-.77-.29,1.23,1.23,0,0,0-1,.39,1.89,1.89,0,0,0-.33,1.22v2.7h-.74V43.11a1.33,1.33,0,0,0-.24-.87,1,1,0,0,0-.78-.29,1.22,1.22,0,0,0-1,.41,2.29,2.29,0,0,0-.32,1.36v2.54h-.73V41.42H23l.12.66h0a1.37,1.37,0,0,1,.59-.55,1.68,1.68,0,0,1,.84-.2,1.44,1.44,0,0,1,1.49.82h0a1.65,1.65,0,0,1,.63-.6,2,2,0,0,1,.94-.22,1.64,1.64,0,0,1,1.23.42,1.85,1.85,0,0,1,.41,1.35v3.16Z"/><path class="cls-3" d="M33.8,46.26l-.15-.69h0a2.1,2.1,0,0,1-.73.62,2.16,2.16,0,0,1-.9.16A1.6,1.6,0,0,1,30.86,46a1.37,1.37,0,0,1-.41-1.06c0-1,.78-1.49,2.35-1.54l.82,0v-.3a1.29,1.29,0,0,0-.24-.85,1,1,0,0,0-.79-.27,3.32,3.32,0,0,0-1.37.37L31,41.75a3.56,3.56,0,0,1,1.64-.41,1.81,1.81,0,0,1,1.28.38A1.62,1.62,0,0,1,34.34,43v3.3Zm-1.66-.51a1.49,1.49,0,0,0,1.07-.38,1.36,1.36,0,0,0,.4-1v-.44l-.74,0a2.68,2.68,0,0,0-1.26.27.82.82,0,0,0-.39.75.76.76,0,0,0,.24.61A1,1,0,0,0,32.14,45.75Z"/><path class="cls-3" d="M42.39,43.84a2.72,2.72,0,0,1-.59,1.85,2.12,2.12,0,0,1-1.65.66,2.23,2.23,0,0,1-1.16-.3,2,2,0,0,1-.78-.88,3.07,3.07,0,0,1-.27-1.33A2.69,2.69,0,0,1,38.53,42a2.1,2.1,0,0,1,1.65-.66,2,2,0,0,1,1.61.67A2.7,2.7,0,0,1,42.39,43.84Zm-3.69,0a2.26,2.26,0,0,0,.37,1.41,1.28,1.28,0,0,0,1.09.49,1.3,1.3,0,0,0,1.1-.49,2.87,2.87,0,0,0,0-2.82A1.32,1.32,0,0,0,40.15,42a1.28,1.28,0,0,0-1.08.47A2.27,2.27,0,0,0,38.7,43.84Z"/><path class="cls-3" d="M48.25,41.33a2.67,2.67,0,0,1,.58.05l-.11.68a2.69,2.69,0,0,0-.53-.06,1.26,1.26,0,0,0-1,.47,1.75,1.75,0,0,0-.42,1.19v2.6H46V41.42h.61l.08.89h0a2.21,2.21,0,0,1,.65-.73A1.46,1.46,0,0,1,48.25,41.33Z"/><path class="cls-3" d="M51.78,46.35a2.26,2.26,0,0,1-1.7-.65,2.56,2.56,0,0,1-.62-1.82A2.78,2.78,0,0,1,50,42a1.91,1.91,0,0,1,1.55-.69,1.81,1.81,0,0,1,1.44.6,2.26,2.26,0,0,1,.53,1.58V44H50.22a2,2,0,0,0,.43,1.3,1.53,1.53,0,0,0,1.16.44,3.89,3.89,0,0,0,1.55-.33V46a4.22,4.22,0,0,1-.74.24A4.06,4.06,0,0,1,51.78,46.35Zm-.2-4.41a1.21,1.21,0,0,0-.93.38,1.79,1.79,0,0,0-.41,1.06h2.54a1.66,1.66,0,0,0-.31-1.07A1.13,1.13,0,0,0,51.58,41.94Z"/><path class="cls-3" d="M57.94,44.94a1.22,1.22,0,0,1-.5,1.05,2.42,2.42,0,0,1-1.42.36,3.11,3.11,0,0,1-1.5-.3v-.68a4.16,4.16,0,0,0,.75.28,3.54,3.54,0,0,0,.77.1,1.71,1.71,0,0,0,.89-.19.62.62,0,0,0,.06-1A3.74,3.74,0,0,0,56,44a4.46,4.46,0,0,1-1-.44,1.2,1.2,0,0,1-.42-.42,1,1,0,0,1-.14-.57,1.09,1.09,0,0,1,.48-.94,2.23,2.23,0,0,1,1.32-.34,3.75,3.75,0,0,1,1.53.32l-.26.59a3.54,3.54,0,0,0-1.32-.3,1.52,1.52,0,0,0-.79.17.49.49,0,0,0-.26.45.58.58,0,0,0,.09.33,1,1,0,0,0,.33.26,8,8,0,0,0,.84.36,3.19,3.19,0,0,1,1.17.63A1.12,1.12,0,0,1,57.94,44.94Z"/><path class="cls-3" d="M59.83,41.42v3.14a1.28,1.28,0,0,0,.27.89,1.11,1.11,0,0,0,.84.29,1.39,1.39,0,0,0,1.12-.42A2.13,2.13,0,0,0,62.41,44V41.42h.73v4.84h-.6l-.11-.65h0a1.41,1.41,0,0,1-.63.55,2,2,0,0,1-.91.19,1.84,1.84,0,0,1-1.32-.42,1.76,1.76,0,0,1-.45-1.34V41.42Z"/><path class="cls-3" d="M65.43,46.26H64.7V39.38h.73Z"/><path class="cls-3" d="M68.56,45.75a2.22,2.22,0,0,0,.37,0l.29-.06v.56a1.51,1.51,0,0,1-.35.1l-.42,0c-.94,0-1.41-.49-1.41-1.48V42h-.69v-.36l.69-.3.31-1h.43v1.13h1.41V42H67.78v2.85a1,1,0,0,0,.21.67A.69.69,0,0,0,68.56,45.75Z"/><path class="cls-3" d="M73.17,46.26,73,45.57h0a2,2,0,0,1-.72.62,2.16,2.16,0,0,1-.9.16A1.6,1.6,0,0,1,70.24,46a1.34,1.34,0,0,1-.41-1.06c0-1,.78-1.49,2.35-1.54l.82,0v-.3a1.23,1.23,0,0,0-.25-.85,1,1,0,0,0-.78-.27,3.28,3.28,0,0,0-1.37.37l-.23-.56a3.24,3.24,0,0,1,.79-.3,3.1,3.1,0,0,1,.85-.11,1.84,1.84,0,0,1,1.29.38A1.62,1.62,0,0,1,73.72,43v3.3Zm-1.66-.51a1.5,1.5,0,0,0,1.08-.38,1.39,1.39,0,0,0,.39-1v-.44l-.73,0a2.7,2.7,0,0,0-1.27.27.83.83,0,0,0-.38.75.76.76,0,0,0,.24.61A1,1,0,0,0,71.51,45.75Z"/><path class="cls-3" d="M78.53,45.61h0a1.71,1.71,0,0,1-1.52.74,1.77,1.77,0,0,1-1.48-.65A2.81,2.81,0,0,1,75,43.85,2.92,2.92,0,0,1,75.49,42a2,2,0,0,1,3,0h.06l0-.35,0-.34v-2h.73v6.88h-.59Zm-1.47.13a1.35,1.35,0,0,0,1.09-.41A2,2,0,0,0,78.49,44v-.16a2.52,2.52,0,0,0-.34-1.47,1.33,1.33,0,0,0-1.1-.44,1.14,1.14,0,0,0-1,.5,2.51,2.51,0,0,0-.34,1.42,2.35,2.35,0,0,0,.34,1.4A1.15,1.15,0,0,0,77.06,45.74Z"/><path class="cls-3" d="M85,43.84a2.67,2.67,0,0,1-.6,1.85,2.12,2.12,0,0,1-1.65.66,2.23,2.23,0,0,1-1.16-.3,2.07,2.07,0,0,1-.77-.88,2.93,2.93,0,0,1-.28-1.33A2.69,2.69,0,0,1,81.1,42a2.12,2.12,0,0,1,1.65-.66,2.05,2.05,0,0,1,1.62.67A2.7,2.7,0,0,1,85,43.84Zm-3.7,0a2.33,2.33,0,0,0,.37,1.41,1.3,1.3,0,0,0,1.1.49,1.28,1.28,0,0,0,1.09-.49,2.81,2.81,0,0,0,0-2.82,1.5,1.5,0,0,0-2.19,0A2.27,2.27,0,0,0,81.27,43.84Z"/></g></g></svg>