<?xml version="1.0" encoding="utf-8"?>
<!-- Generator: Adobe Illustrator 22.1.0, SVG Export Plug-In . SVG Version: 6.00 Build 0)  -->
<svg version="1.1" id="Layer_1" xmlns="http://www.w3.org/2000/svg" xmlns:xlink="http://www.w3.org/1999/xlink" x="0px" y="0px"
	 viewBox="0 0 244 208" style="enable-background:new 0 0 244 208;" xml:space="preserve">
<style type="text/css">
	.st0{fill:#B3282C;}
	.st1{fill:#579C42;}
</style>
<path class="st0" d="M24.8,115.6L88,178.8c3.1,3.1,7.4,4.5,11.4,4.1c4.6-0.5,8.1-4.6,8.1-9.2l0-42.6l110.8,0
	c7.8,0,14.2-6.4,14.2-14.2l0-35.7c0-7.8-6.4-14.2-14.2-14.2l-110.8,0l0-42.6c0-4.7-3.4-8.7-8.1-9.2c-4.1-0.4-8.3,0.9-11.4,4.1
	L24.8,82.4C15.7,91.5,15.7,106.5,24.8,115.6z"/>
</svg>
