<svg xmlns="http://www.w3.org/2000/svg" viewBox="0 0 94.88 48.44"><defs><style>.cls-1{fill:#fff;}.cls-2,.cls-3{fill:#007eab;}.cls-3{fill-rule:evenodd;}</style></defs><title>Asset 5</title><g id="Layer_2" data-name="Layer 2"><g id="Layer_1-2" data-name="Layer 1"><path class="cls-1" d="M3.11,40.38a2.09,2.09,0,0,0-1.69.71A2.86,2.86,0,0,0,.81,43a2.89,2.89,0,0,0,.59,2,2.13,2.13,0,0,0,1.7.7,5.91,5.91,0,0,0,1.54-.25v.66A4.72,4.72,0,0,1,3,46.35a2.81,2.81,0,0,1-2.2-.86A3.57,3.57,0,0,1,0,43a3.89,3.89,0,0,1,.37-1.75,2.69,2.69,0,0,1,1.08-1.16,3.29,3.29,0,0,1,1.66-.41,4,4,0,0,1,1.78.38l-.32.64A3.38,3.38,0,0,0,3.11,40.38Z"/><path class="cls-1" d="M10.13,43.84a2.67,2.67,0,0,1-.6,1.85,2.12,2.12,0,0,1-1.65.66,2.25,2.25,0,0,1-1.16-.3A2.07,2.07,0,0,1,6,45.17a2.93,2.93,0,0,1-.28-1.33A2.69,2.69,0,0,1,6.26,42a2.12,2.12,0,0,1,1.65-.66A2.05,2.05,0,0,1,9.53,42,2.7,2.7,0,0,1,10.13,43.84Zm-3.7,0a2.33,2.33,0,0,0,.37,1.41,1.3,1.3,0,0,0,1.1.49A1.28,1.28,0,0,0,9,45.25a2.81,2.81,0,0,0,0-2.82A1.3,1.3,0,0,0,7.89,42a1.3,1.3,0,0,0-1.09.47A2.34,2.34,0,0,0,6.43,43.84Z"/><path class="cls-1" d="M17.6,46.26V43.11a1.33,1.33,0,0,0-.25-.87,1,1,0,0,0-.77-.29,1.26,1.26,0,0,0-1,.39,2,2,0,0,0-.32,1.22v2.7H14.5V43.11a1.27,1.27,0,0,0-.25-.87,1,1,0,0,0-.77-.29,1.21,1.21,0,0,0-1,.41,2.29,2.29,0,0,0-.32,1.36v2.54h-.74V41.42H12l.12.66h0a1.4,1.4,0,0,1,.58-.55,1.72,1.72,0,0,1,.85-.2,1.45,1.45,0,0,1,1.49.82h0a1.65,1.65,0,0,1,.63-.6,1.92,1.92,0,0,1,.94-.22,1.64,1.64,0,0,1,1.23.42,1.9,1.9,0,0,1,.41,1.35v3.16Z"/><path class="cls-1" d="M22.1,46.35a2.25,2.25,0,0,1-.87-.17,1.62,1.62,0,0,1-.65-.54h-.06a5.73,5.73,0,0,1,.06.81v2h-.74v-7h.6l.1.66h0a1.71,1.71,0,0,1,.66-.58,2.09,2.09,0,0,1,.86-.17,1.8,1.8,0,0,1,1.49.66,3.52,3.52,0,0,1,0,3.7A1.8,1.8,0,0,1,22.1,46.35ZM22,42a1.31,1.31,0,0,0-1.07.41,2.1,2.1,0,0,0-.34,1.31v.17a2.41,2.41,0,0,0,.34,1.46,1.31,1.31,0,0,0,1.09.44,1.12,1.12,0,0,0,1-.51,2.4,2.4,0,0,0,.36-1.4A2.28,2.28,0,0,0,23,42.44,1.15,1.15,0,0,0,22,42Z"/><path class="cls-1" d="M28.38,46.26l-.15-.69h0a2.1,2.1,0,0,1-.73.62,2.16,2.16,0,0,1-.9.16A1.6,1.6,0,0,1,25.44,46,1.37,1.37,0,0,1,25,44.92c0-1,.78-1.49,2.35-1.54l.82,0v-.3a1.29,1.29,0,0,0-.24-.85,1,1,0,0,0-.79-.27,3.32,3.32,0,0,0-1.37.37l-.22-.56a3.56,3.56,0,0,1,1.64-.41,1.81,1.81,0,0,1,1.28.38A1.62,1.62,0,0,1,28.92,43v3.3Zm-1.66-.51a1.49,1.49,0,0,0,1.07-.38,1.36,1.36,0,0,0,.4-1v-.44l-.74,0a2.68,2.68,0,0,0-1.26.27.82.82,0,0,0-.39.75.76.76,0,0,0,.24.61A1,1,0,0,0,26.72,45.75Z"/><path class="cls-1" d="M32.65,41.33a2.67,2.67,0,0,1,.58.05l-.11.68a2.69,2.69,0,0,0-.53-.06,1.27,1.27,0,0,0-1,.47,1.75,1.75,0,0,0-.42,1.19v2.6h-.74V41.42H31l.08.89h0a2.21,2.21,0,0,1,.65-.73A1.46,1.46,0,0,1,32.65,41.33Z"/><path class="cls-1" d="M35.7,45.75a2.22,2.22,0,0,0,.37,0l.29-.06v.56a1.37,1.37,0,0,1-.35.1l-.42,0c-.94,0-1.4-.49-1.4-1.48V42h-.7v-.36l.7-.3.31-1h.42v1.13h1.41V42H34.92v2.85a1,1,0,0,0,.21.67A.72.72,0,0,0,35.7,45.75Z"/><path class="cls-1" d="M37.27,40.1a.5.5,0,0,1,.12-.37.44.44,0,0,1,.31-.11.49.49,0,0,1,.31.11.52.52,0,0,1,.13.37.5.5,0,0,1-.13.37.46.46,0,0,1-.62,0A.5.5,0,0,1,37.27,40.1Zm.8,6.16h-.74V41.42h.74Z"/><path class="cls-1" d="M40.36,46.26h-.74V39.38h.74Z"/><path class="cls-1" d="M45.23,46.26V43.13a1.28,1.28,0,0,0-.27-.89,1.11,1.11,0,0,0-.84-.29,1.38,1.38,0,0,0-1.12.42,2.11,2.11,0,0,0-.35,1.36v2.53h-.74V39.38h.74v2.08a3.77,3.77,0,0,1,0,.63h0a1.48,1.48,0,0,1,.61-.55,2,2,0,0,1,.92-.2,1.86,1.86,0,0,1,1.33.42A1.76,1.76,0,0,1,46,43.1v3.16Z"/><path class="cls-1" d="M49.52,46.35a2.24,2.24,0,0,1-1.69-.65,2.51,2.51,0,0,1-.62-1.82A2.83,2.83,0,0,1,47.78,42a1.92,1.92,0,0,1,1.55-.69,1.85,1.85,0,0,1,1.45.6,2.3,2.3,0,0,1,.53,1.58V44H48a1.88,1.88,0,0,0,.43,1.3,1.49,1.49,0,0,0,1.15.44,3.89,3.89,0,0,0,1.55-.33V46a4.22,4.22,0,0,1-.74.24A4.06,4.06,0,0,1,49.52,46.35Zm-.2-4.41a1.22,1.22,0,0,0-.93.38A1.86,1.86,0,0,0,48,43.38h2.54a1.61,1.61,0,0,0-.31-1.07A1.12,1.12,0,0,0,49.32,41.94Z"/><path class="cls-1" d="M59.1,43.84a2.67,2.67,0,0,1-.6,1.85,2.12,2.12,0,0,1-1.65.66,2.19,2.19,0,0,1-1.15-.3,2,2,0,0,1-.78-.88,2.93,2.93,0,0,1-.28-1.33,2.64,2.64,0,0,1,.6-1.85,2.08,2.08,0,0,1,1.64-.66A2.05,2.05,0,0,1,58.5,42,2.7,2.7,0,0,1,59.1,43.84Zm-3.7,0a2.26,2.26,0,0,0,.38,1.41,1.46,1.46,0,0,0,2.18,0,2.81,2.81,0,0,0,0-2.82,1.3,1.3,0,0,0-1.1-.48,1.32,1.32,0,0,0-1.09.47A2.34,2.34,0,0,0,55.4,43.84Z"/><path class="cls-1" d="M68.46,43a3.56,3.56,0,0,1-.78,2.44,2.74,2.74,0,0,1-2.18.89,2.8,2.8,0,0,1-2.21-.87A3.59,3.59,0,0,1,62.51,43a3.55,3.55,0,0,1,.78-2.45,2.82,2.82,0,0,1,2.21-.87,2.76,2.76,0,0,1,2.18.89A3.56,3.56,0,0,1,68.46,43Zm-5.15,0a3.07,3.07,0,0,0,.56,2,2.29,2.29,0,0,0,3.25,0,3.16,3.16,0,0,0,.55-2,3.11,3.11,0,0,0-.55-2,2,2,0,0,0-1.62-.67,2,2,0,0,0-1.63.68A3,3,0,0,0,63.31,43Z"/><path class="cls-1" d="M72,41.33a2.61,2.61,0,0,1,.58.05l-.1.68A2.86,2.86,0,0,0,72,42a1.27,1.27,0,0,0-1,.47,1.75,1.75,0,0,0-.42,1.19v2.6H69.8V41.42h.6l.09.89h0a2.21,2.21,0,0,1,.65-.73A1.46,1.46,0,0,1,72,41.33Z"/><path class="cls-1" d="M76.48,46.26l-.15-.69h0a2,2,0,0,1-.72.62,2.16,2.16,0,0,1-.9.16A1.6,1.6,0,0,1,73.54,46a1.37,1.37,0,0,1-.41-1.06c0-1,.78-1.49,2.35-1.54l.82,0v-.3a1.29,1.29,0,0,0-.24-.85,1,1,0,0,0-.79-.27,3.32,3.32,0,0,0-1.37.37l-.22-.56a3.56,3.56,0,0,1,1.64-.41,1.81,1.81,0,0,1,1.28.38A1.62,1.62,0,0,1,77,43v3.3Zm-1.66-.51a1.49,1.49,0,0,0,1.07-.38,1.36,1.36,0,0,0,.4-1v-.44l-.74,0a2.68,2.68,0,0,0-1.26.27.82.82,0,0,0-.39.75.76.76,0,0,0,.24.61A1,1,0,0,0,74.82,45.75Zm-.18-5.09A5.73,5.73,0,0,0,75.1,40a5.88,5.88,0,0,0,.39-.68h.89v.1a6.36,6.36,0,0,1-.58.7,6.5,6.5,0,0,1-.66.65h-.5Z"/><path class="cls-1" d="M80.47,46.35a2.08,2.08,0,0,1-1.63-.64,2.72,2.72,0,0,1-.58-1.84A2.75,2.75,0,0,1,78.85,42a2.12,2.12,0,0,1,1.67-.66,3.33,3.33,0,0,1,.7.07,2.36,2.36,0,0,1,.55.18l-.23.62A3.67,3.67,0,0,0,81,42,2.5,2.5,0,0,0,80.5,42c-1,0-1.48.63-1.48,1.88a2.22,2.22,0,0,0,.36,1.37,1.26,1.26,0,0,0,1.07.48,3.37,3.37,0,0,0,1.25-.26v.65A2.67,2.67,0,0,1,80.47,46.35Z"/><path class="cls-1" d="M83.54,41.42v3.14a1.28,1.28,0,0,0,.27.89,1.11,1.11,0,0,0,.84.29,1.36,1.36,0,0,0,1.11-.42A2.07,2.07,0,0,0,86.12,44V41.42h.73v4.84h-.61l-.1-.65h0a1.41,1.41,0,0,1-.63.55,2,2,0,0,1-.91.19,1.88,1.88,0,0,1-1.33-.42,1.8,1.8,0,0,1-.44-1.34V41.42Z"/><path class="cls-1" d="M89.14,46.26h-.73V39.38h.73Z"/><path class="cls-1" d="M94.88,43.84a2.67,2.67,0,0,1-.59,1.85,2.12,2.12,0,0,1-1.65.66,2.23,2.23,0,0,1-1.16-.3,2.16,2.16,0,0,1-.78-.88,3.07,3.07,0,0,1-.27-1.33A2.69,2.69,0,0,1,91,42a2.12,2.12,0,0,1,1.65-.66,2,2,0,0,1,1.61.67A2.7,2.7,0,0,1,94.88,43.84Zm-3.69,0a2.26,2.26,0,0,0,.37,1.41,1.47,1.47,0,0,0,2.19,0,2.87,2.87,0,0,0,0-2.82,1.5,1.5,0,0,0-2.19,0A2.27,2.27,0,0,0,91.19,43.84Z"/><path class="cls-2" d="M47.42,35a17.5,17.5,0,1,1,17.5-17.5A17.52,17.52,0,0,1,47.42,35Zm0-34a16.5,16.5,0,1,0,16.5,16.5A16.52,16.52,0,0,0,47.42,1Z"/><path class="cls-3" d="M48.16,28.2V17.92h3.39l.54-3.41H48.16V12.8c0-.89.29-1.74,1.56-1.74h2.56V7.66H48.65c-3,0-3.87,2-3.87,4.79v2.06H42.69v3.41h2.09V28.2Z"/></g></g></svg>